<svg xmlns="http://www.w3.org/2000/svg" viewBox="0 0 2000 2000">
	<path fill="#FFF" d="M1707.5,1707.5c390-390,390-1024.9,0-1414.9s-1024.9-390-1414.9,0s-390,1024.9,0,1414.9 S1317.4,2097.5,1707.5,1707.5z M363.1,363.1c351.3-351.3,922.5-351.3,1273.8,0s351.3,922.5,0,1273.8s-922.5,351.3-1273.8,0 S12.2,714.4,363.1,363.1z"/>
	<path fill="#FFF" d="M1000,1374.5c13.9,0,26.1-5.7,35.5-14.7c9-9,14.7-21.6,14.7-35.5v-274.6h274.6c13.9,0,26.1-5.7,35.5-14.7 c9-9,14.7-21.6,14.7-35.5c0-27.7-22.4-50.2-49.8-49.8h-274.6V675.2c0-27.7-22.4-50.2-49.8-49.8c-27.7,0-50.2,22.4-49.8,49.8v274.6 H676.5c-27.7,0-50.2,22.4-49.8,49.8c0,27.7,22.4,50.2,49.8,49.8H951v274.6C949.8,1352.1,972.3,1374.5,1000,1374.5z"/>
</svg>