<svg xmlns="http://www.w3.org/2000/svg" viewBox="0 245.3 841.9 109">
  <linearGradient id="a" gradientUnits="userSpaceOnUse" x1="6.8" y1="587.28" x2="6.8" y2="575.28" gradientTransform="translate(-4.32 -1960.35) scale(3.8797)">
    <stop offset="0" stop-color="#6c8896"/>
    <stop offset="0" stop-color="#6d8997"/>
    <stop offset=".08" stop-color="#97adb9"/>
    <stop offset=".15" stop-color="#b9cad3"/>
    <stop offset=".2" stop-color="#d0dbe2"/>
    <stop offset=".24" stop-color="#d8e2e7"/>
    <stop offset=".32" stop-color="#c9d6dd"/>
    <stop offset=".47" stop-color="#a3b8c3"/>
    <stop offset=".67" stop-color="#6e8997"/>
    <stop offset=".91" stop-color="#2f4f5e"/>
    <stop offset="1" stop-color="#113442"/>
  </linearGradient>
  <path fill="url(#a)" d="M20.9 272.3c-8.5 0-15.1 10.5-15.1 23.7s7 24.1 15.1 24.1h3.5c3.5 0 8.5-.8 6.6-2.7-4.7-3.9-7.8-11.3-7.8-19.8 0-12.4 6.6-22.5 15.1-22.5l-15.5-2.7h-1.9z"/>
  <linearGradient id="b" gradientUnits="userSpaceOnUse" x1="10.8" y1="582.28" x2="10.8" y2="587.28" gradientTransform="translate(-4.32 -1960.35) scale(3.8797)">
    <stop offset="0" stop-color="#ed1c24"/>
    <stop offset=".37" stop-color="#ed1c24"/>
    <stop offset=".45" stop-color="#e51c23"/>
    <stop offset=".54" stop-color="#d61a21"/>
    <stop offset=".66" stop-color="#be171d"/>
    <stop offset=".78" stop-color="#9f0f13"/>
    <stop offset=".91" stop-color="#7a0101"/>
    <stop offset="1" stop-color="#5e0000"/>
  </linearGradient>
  <path fill="url(#b)" d="M20.9 319.7c7.8 0 14.7-8.1 14.4-20.6h19c0 12.4-8.5 20.6-17.1 20.6H20.9z"/>
  <linearGradient id="c" gradientUnits="userSpaceOnUse" x1="13.66" y1="575.28" x2="13.66" y2="587.28" gradientTransform="translate(-4.32 -1960.35) scale(3.8797)">
    <stop offset="0" stop-color="#b5191e"/>
    <stop offset=".02" stop-color="#c91b21"/>
    <stop offset=".05" stop-color="#db1c23"/>
    <stop offset=".08" stop-color="#e71c24"/>
    <stop offset=".12" stop-color="#ed1c24"/>
    <stop offset=".19" stop-color="#f05139"/>
    <stop offset=".25" stop-color="#f2684b"/>
    <stop offset=".28" stop-color="#f37053"/>
    <stop offset=".34" stop-color="#f15f43"/>
    <stop offset=".46" stop-color="#ee2325"/>
    <stop offset=".47" stop-color="#ed1c24"/>
    <stop offset=".53" stop-color="#e01b23"/>
    <stop offset=".64" stop-color="#c6181e"/>
    <stop offset=".78" stop-color="#9e0f13"/>
    <stop offset=".95" stop-color="#6c0000"/>
    <stop offset="1" stop-color="#5e0000"/>
  </linearGradient>
  <path fill="url(#c)" d="M62.8 319.7l9.7-.8c3.5 0 5-.4 3.1-2.3-5-4.3-9.3-12.4-12.8-21-5-12-10.1-24.1-20.2-24.1H20.9c9.3 0 14.4 11.3 19 24.1 4.7 11.6 10.5 24.1 19 24.1h3.9z"/>
  <linearGradient id="d" gradientUnits="userSpaceOnUse" x1="25" y1="587.28" x2="25" y2="571.28" gradientTransform="translate(-4.32 -1960.35) scale(3.8797)">
    <stop offset="0" stop-color="#6c8896"/>
    <stop offset="0" stop-color="#6d8897"/>
    <stop offset=".05" stop-color="#8fa7b3"/>
    <stop offset=".1" stop-color="#aec0ca"/>
    <stop offset=".15" stop-color="#c5d3da"/>
    <stop offset=".19" stop-color="#d3dee4"/>
    <stop offset=".24" stop-color="#d8e2e7"/>
    <stop offset=".32" stop-color="#c9d6dd"/>
    <stop offset=".47" stop-color="#a3b8c3"/>
    <stop offset=".67" stop-color="#6e8997"/>
    <stop offset=".91" stop-color="#2f4f5e"/>
    <stop offset="1" stop-color="#113442"/>
  </linearGradient>
  <path fill="url(#d)" d="M80.3 319.7c10.9 0 18.2-19.8 23.3-31.8 7.4-17.1 14.4-31.8 23.3-31.8h-21.7c-8.9 0-15.9 15.1-23.3 31.8-5 12-12.4 31.8-23.3 31.8h21.7z"/>
  <path fill="#D71920" d="M186.2 320.4h-15.9c0-1.9-1.6-7.8-4.7-17.1h-22.9c-3.1 9.3-4.7 15.1-4.7 17.1h-12.8c-1.2 0-1.9-1.2-1.6-1.9 1.2-3.9 5-13.2 10.9-27.5 7.8-18.6 11.6-28.7 11.6-30.6h18.6c0 1.9 3.5 11.6 10.5 30.3 7.5 18.1 11 28.2 11 29.7zm-22.9-26c-5.8-15.9-8.5-24.4-8.5-25.6h-.8c0 1.2-3.1 9.7-8.9 25.6h18.2zM238.2 302.6c0 12.4-10.9 18.2-32.2 18.2-3.9 0-9.7 0-17.5-.4.4-9.3.8-19.8.8-31.4 0-11.3-.4-20.6-.8-28.7h24.4c14.7 0 22.1 4.3 22.1 13.2 0 7-3.9 11.3-11.3 13.6v.8c3.9.8 7.4 1.9 10.5 4.3 2.4 2.2 4 5.7 4 10.4zM221.1 277c0-5.4-3.9-8.1-11.3-8.1-3.5 0-6.6.4-8.9.8.4 3.1.4 8.5.4 15.9h3.9c10.8-.1 15.9-2.8 15.9-8.6zm3.9 26c0-6.2-5.8-9.3-17.5-9.3-2.3 0-4.3 0-5.8.4 0 6.6 0 12.4.4 17.8 1.2.4 2.7.4 5 .4 6.2 0 10.5-.8 13.6-1.9 2.7-1.6 4.3-3.9 4.3-7.4z"/>
  <path fill="#3E484F" d="M320 320.4h-9.3c-.8 0-1.6-.8-1.6-1.6 0-7.4-.4-31.8-.4-33.4h-.7c-.8 2.3-8.9 25.2-12 34.9h-9.3s-3.1-9.3-5.8-16.7-5-12.8-6.6-18.2h-.8c0 1.9 0 7.8-.4 16.7-.4 8.9-.4 15.1-.4 18.2h-11.3c0-.8 3.1-43.8 3.1-43.8H282c0 3.5 10.5 33.8 10.5 33.8h.4c.8-1.6 9.7-29.9 10.5-33.8h17.8l1.6 42.3c-.8.9-1.6 1.6-2.8 1.6zM373.2 294.1c0 1.6 0 3.5-.4 6.2l-31.8.4c.4 3.5 1.9 6.2 4.7 8.5 2.7 2.3 6.2 3.5 10.9 3.5 5 0 10.1-.8 15.9-1.9l-1.2 8.9c-4.7 1.6-10.1 2.3-17.1 2.3-8.5 0-15.1-2.3-19.8-6.6-4.7-4.7-7-9.7-7-16.3s2.3-12.4 6.6-17.1 10.5-7.4 17.8-7.4c7 0 12 1.9 15.5 5.4 3.9 3.6 5.9 8.2 5.9 14.1zm-11.7-.8c0-7-3.1-10.5-9.7-10.5-6.2 0-9.7 3.5-10.9 10.9l20.6-.4zM419.7 276.6l-.4 9.3c-4.7-.4-9.7-.8-14.4-.8 0 3.9 0 25.2.4 33.8 0 .8-.8 1.6-1.6 1.6H394c-.8 0-1.6-.8-1.6-1.6.4-8.1.4-29.5.4-33.8-4.7 0-9.7.4-15.1.8l.4-9.3h41.6zM467.1 320.4l-11.6.4c-.4-1.2-.8-2.3-.8-3.5h-.8c-3.5 2.7-8.5 4.3-14.7 4.3-4.3 0-7.4-1.2-10.5-3.1-2.7-2.3-4.3-5-4.3-8.5 0-4.7 1.9-8.5 6.2-11.6 4.3-3.1 11.6-4.7 22.5-4.7v-1.6c0-3.5-.8-5.4-2.7-6.6-1.6-1.2-5-1.6-9.3-1.6-5 0-9.7.8-14.7 1.9l1.2-8.5c4.7-1.6 10.9-2.3 19-2.3 5.8 0 10.5 1.2 14 3.5 3.1 2.3 5 6.6 5 12.4v14c-.1 6.2.3 11.7 1.5 15.5zm-13.2-9.7c0-4.3-.4-7.8-.4-10.9-11.3 0-17.1 2.7-17.1 8.1 0 3.5 2.3 5.4 7.4 5.4 4.3.2 7.4-.6 10.1-2.6zM471.3 320.4c1.2-2.7 3.5-9.3 8.9-22.1s8.9-20.2 9.7-22.1h12.8c.4 1.9 3.1 9.3 7.8 22.5 3.9 10.1 6.2 16.3 7 19.4.4 1.2-.4 1.9-1.6 1.9h-12c-.4-1.6-1.9-6.2-5-15.9-3.1-9.3-4.3-14.4-5-16.3h-.8c-.4 1.6-2.3 6.6-5 15.5s-4.3 14.4-4.7 17.1h-12.1zM592 276.6l-.4 9.7c-2.3-.4-9.7-.4-22.1-.8 0 5.4.4 25.2.8 33.4 0 .8-.8 1.6-1.6 1.6H559c-.8 0-1.6-.8-1.6-1.6.4-8.9.4-36.1 0-42.3H592zM747.6 276.6h-44.2c.4 5.8.4 33.4 0 42.3 0 .8.8 1.6 1.6 1.6h9.7c.8 0 1.6-.8 1.6-1.6-.4-7.8-.8-27.5-.8-33.4 9.7.4 16.3.4 19.8.8.4 10.9 0 26.4-.4 32.6 0 .8.8 1.6 1.6 1.6h8.9c.8 0 1.6-.8 1.6-1.6.2-6.6 1-27.2.6-42.3zM649 296.8c0 6.6-1.9 12.4-6.2 17.5-4.3 5-9.7 7.8-16.7 7.8-5.4 0-8.9-1.2-10.9-3.1l-.8-.4.4 23.3h-13.6v-30.6c0-15.1-.4-26.8-1.9-33.8l12.8-1.2.8 4.3 1.2-.8c3.5-3.1 8.1-4.3 14-4.3 6.2 0 11.3 1.9 15.1 6.2 3.9 4.2 5.8 9.3 5.8 15.1zm-13.2 1.1c0-5.8-2.3-10.5-7-14-6.6-1.2-11.3 0-14.4 2.7-.4.4-.4.8-.4 1.2.4 7.4.4 16.3.8 23.3 1.9 1.6 4.7 2.3 8.1 2.3 4.3 0 7.8-1.6 9.7-4.7 2.1-3 3.2-6.5 3.2-10.8zM696 276.6s-14.4 38.8-16.3 44.2c-2.7 7.4-5.8 12.8-9.3 15.9-3.5 2.7-8.9 4.3-15.9 4.3l-1.2-8.9c4.3 0 7.4-1.2 10.1-3.1 2.7-2.3 3.9-5 3.9-8.5s-2.3-11.6-8.5-24.1c-5.8-12.4-8.9-19-8.9-19.4h12.8l11.3 33s8.5-30.6 8.5-33c.7-.4 13.5-.4 13.5-.4z"/>
</svg>
