<svg xmlns="http://www.w3.org/2000/svg" viewBox="0 0 124.6 43.6">
	<path fill="#CB2026" d="M63.4,32.5c-0.1-0.7-0.1-1.3-0.1-2.1c-8.1,0-16.1,0-24.2,0c0-8.9,0-17.6,0-26.4c27,0,54,0,81,0 c0,9.5,0,18.9,0,28.5C101.2,32.5,82.4,32.5,63.4,32.5z"/>
	<path fill="#727B85" d="M17.8,38.9c-0.7-3.8-2.6-5.8-5.6-5.9c-3.1-0.1-5,1.8-6,5.9c-0.8,0-1.5,0-2.5,0C4.1,37.5,2.9,36,4.5,35 c0.2-0.1,0.1-0.8,0.1-1.2c0-2.8,0-5.7,0-8.8c4.1-0.3,8.1-0.7,12.3-1c0.7-2.4,1.4-4.9,2.1-7.4c0.3-1.2,1-1.7,2.3-1.7 c3,0.1,6,0,9.2,0c0,6.4,0,12.8,0,19.2c3.4,0,6.6,0,9.8,0c-0.6,1.6-1.2,3-1.9,4.6C31.7,38.9,24.7,38.9,17.8,38.9z M17.7,24 c2.9,0,5.5,0,8.1,0c0-2.5,0-4.8,0-7.3c-1.8,0-3.4,0-5.1,0c-0.3,0-0.8,0.2-0.9,0.4C19.1,19.4,18.4,21.7,17.7,24z M19.1,37.4 c2.9,0,5.7,0,8.6,0c0-0.7,0-1.2,0-1.8c-2.9,0-5.7,0-8.6,0C19.1,36.2,19.1,36.7,19.1,37.4z M26.1,29.5c0-0.9,0-1.7,0-2.5 c-0.7,0-1.3,0-1.9,0c0,0.9,0,1.6,0,2.5C24.9,29.5,25.5,29.5,26.1,29.5z"/>
	<path fill="#727B85" d="M32.5,26.1c0,0,1.8,0.8,1.8,1.3s0,5.3,0,5.3h-1.8V26.1z"/>

	<path d="M111.3,34.2"/>
	<path d="M101.2,34.2"/>
	<path d="M33.5,28.9"/>

	<rect x="63.4" y="34.1" fill="#727B85" width="32.1" height="1.6"/>
	<rect x="31.9" y="12.5" fill="#727B85" width="0.7"  height="20.2"/>
	<rect x="8.6"  y="27.3" fill="#FFFFFF" width="1.2"  height="4.2"/>
	<rect x="10.6" y="27.2" fill="#FFFFFF" width="1.2"  height="4.2"/>
	<rect x="12.6" y="27.2" fill="#FFFFFF" width="1.2"  height="4.2"/>
	<rect x="39"   y="31.4" fill="#727B85" width="23.5" height="1.3"/>

	<circle fill="none" stroke="#727B85" stroke-width="1.902" stroke-miterlimit="10" cx="44.8"  cy="38.1" r="3.9"/>
	<circle fill="none" stroke="#727B85" stroke-width="1.902" stroke-miterlimit="10" cx="56.6"  cy="38.1" r="3.9"/>
	<circle fill="none" stroke="#727B85" stroke-width="1.902" stroke-miterlimit="10" cx="102.5" cy="38.1" r="3.9"/>
	<circle fill="none" stroke="#727B85" stroke-width="1.902" stroke-miterlimit="10" cx="114.1" cy="38.1" r="3.9"/>
	<circle fill="none" stroke="#727B85" stroke-width="1.902" stroke-miterlimit="10" cx="12.1"  cy="38.1" r="3.9"/>

	<polygon fill="#727B85" points="110.4,34 108.5,35.9 106.5,34"/>
	<polygon fill="#727B85" points="52.6,33.5 50.7,35.5 48.7,33.6"/>
</svg>