<svg xmlns="http://www.w3.org/2000/svg" viewBox="0 0 124.6 43.6">
	<path fill="#727B85" d="M63.6,31c-0.1-0.1-0.1-0.3-0.1-0.4c-8.1,0-16.1,0-24.3,0c0-1.7,0-3.4,0-5.1c27.1,0,54.1,0,81.3,0 c0,1.8,0,3.6,0,5.5C101.6,31,82.7,31,63.6,31z"/>
	<path fill="#727B85" d="M18,38.9c-0.7-3.9-2.6-5.8-5.6-5.9c-3.1-0.1-5,1.8-6.1,5.9c-0.8,0-1.5,0-2.5,0c0.4-1.3-0.8-2.8,0.9-3.9 c0.2-0.1,0.1-0.8,0.1-1.2c0-2.9,0-5.7,0-8.8c4.1-0.3,8.2-0.7,12.3-1c0.7-2.4,1.5-4.9,2.1-7.4c0.3-1.3,1-1.7,2.3-1.7 c3,0.1,6,0,9.2,0c0,6.4,0,12.8,0,19.3c3.4,0,6.6,0,9.8,0c-0.6,1.6-1.2,3-1.9,4.6C31.9,38.9,24.9,38.9,18,38.9z M17.9,24.1 c2.9,0,5.5,0,8.1,0c0-2.5,0-4.8,0-7.3c-1.8,0-3.5,0-5.1,0c-0.3,0-0.8,0.2-0.9,0.4C19.2,19.4,18.6,21.7,17.9,24.1z M19.3,37.5 c2.9,0,5.8,0,8.6,0c0-0.7,0-1.2,0-1.8c-2.9,0-5.7,0-8.6,0C19.3,36.3,19.3,36.8,19.3,37.5z M26.3,29.6c0-0.9,0-1.7,0-2.5 c-0.7,0-1.3,0-1.9,0c0,0.9,0,1.7,0,2.5C25.1,29.6,25.6,29.6,26.3,29.6z"/>
	<path fill="#727B85" d="M32.7,26.1c0,0,1.9,0.8,1.9,1.3c0,0.4,0,5.3,0,5.3h-1.9V26.1z"/>

	<path d="M111.8,34.3"/>
	<path d="M101.6,34.3"/>
	<path d="M33.7,29"/>

	<rect x="63.8" y="34.1" fill="#727B85" width="32.2" height="1.6"/>
	<rect x="32.1" y="12.5" fill="#727B85" width="0.7" height="20.3"/>

	<circle fill="none" stroke="#727B85" stroke-width="1.9082" stroke-miterlimit="10" cx="45"    cy="38.2" r="3.9"/>
	<circle fill="none" stroke="#727B85" stroke-width="1.9082" stroke-miterlimit="10" cx="56.9"  cy="38.1" r="3.9"/>
	<circle fill="none" stroke="#727B85" stroke-width="1.9082" stroke-miterlimit="10" cx="102.9" cy="38.1" r="3.9"/>
	<circle fill="none" stroke="#727B85" stroke-width="1.9082" stroke-miterlimit="10" cx="114.6" cy="38.2" r="3.9"/>
	<circle fill="none" stroke="#727B85" stroke-width="1.9082" stroke-miterlimit="10" cx="12.2"  cy="38.2" r="3.9"/>

	<rect x="8.8"  y="27.3" fill="#FFFFFF" width="1.2"  height="4.2"/>
	<rect x="10.8" y="27.3" fill="#FFFFFF" width="1.2"  height="4.2"/>
	<rect x="12.8" y="27.3" fill="#FFFFFF" width="1.2"  height="4.2"/>
	<rect x="39.3" y="31.5" fill="#727B85" width="23.6" height="1.3"/>

	<polygon fill="#727B85" points="110.9,34 108.9,36 106.9,34.1"/>
	<polygon fill="#727B85" points="52.9,33.6 50.9,35.6 48.9,33.7"/>
</svg>