<svg xmlns="http://www.w3.org/2000/svg" viewBox="0 0 124.6 43.6">
	<path fill="#727B85" d="M17.7,38.9c-0.7-3.9-2.6-5.8-5.7-6c-3.1-0.1-5.1,1.8-6.1,6c-0.8,0-1.5,0-2.5,0c0.4-1.3-0.8-2.8,0.9-3.9 c0.2-0.1,0.1-0.8,0.1-1.2c0-2.9,0-5.7,0-8.9c4.2-0.3,8.2-0.7,12.4-1c0.7-2.4,1.5-4.9,2.1-7.5c0.3-1.3,1-1.7,2.3-1.7 c3,0.1,6.1,0,9.3,0c0,6.5,0,12.9,0,19.4c3.4,0,6.7,0,9.9,0c-0.6,1.6-1.2,3.1-1.9,4.7C31.7,38.9,24.7,38.9,17.7,38.9z M17.6,24 c3,0,5.6,0,8.2,0c0-2.5,0-4.9,0-7.4c-1.8,0-3.5,0-5.2,0c-0.3,0-0.8,0.2-0.9,0.4C19,19.3,18.3,21.6,17.6,24z M19,37.5 c3,0,5.8,0,8.7,0c0-0.7,0-1.2,0-1.8c-2.9,0-5.8,0-8.7,0C19,36.2,19,36.8,19,37.5z M26.1,29.5c0-0.9,0-1.7,0-2.5 c-0.7,0-1.3,0-1.9,0c0,0.9,0,1.7,0,2.5C24.9,29.5,25.4,29.5,26.1,29.5z"/>
	<path fill="#727B85" d="M32.5,26c0,0,1.9,0.8,1.9,1.3s0,5.4,0,5.4h-1.9V26z"/>

	<path d="M112.1,34.2"/>
	<path d="M102,34.2"/>
	<path d="M33.5,28.9"/>

	<rect x="63.8" y="34.1" fill="#727B85" width="32.5" height="1.6"/>
	<rect x="31.9" y="12.3" fill="#727B85" width="0.7"  height="20.4"/>
	<rect x="8.4"  y="27.2" fill="#FFFFFF" width="1.2"  height="4.2"/>
	<rect x="10.5" y="27.2" fill="#FFFFFF" width="1.2"  height="4.2"/>
	<rect x="12.5" y="27.2" fill="#FFFFFF" width="1.2"  height="4.2"/>
	<rect x="39.1" y="31.4" fill="#727B85" width="23.8" height="1.3"/>

	<circle fill="none" stroke="#727B85" stroke-width="1.9218" stroke-miterlimit="10" cx="44.9"  cy="38.2" r="3.9"/>
	<circle fill="none" stroke="#727B85" stroke-width="1.9218" stroke-miterlimit="10" cx="56.9"  cy="38.1" r="3.9"/>
	<circle fill="none" stroke="#727B85" stroke-width="1.9218" stroke-miterlimit="10" cx="103.2" cy="38.1" r="3.9"/>
	<circle fill="none" stroke="#727B85" stroke-width="1.9218" stroke-miterlimit="10" cx="115"   cy="38.2" r="3.9"/>
	<circle fill="none" stroke="#727B85" stroke-width="1.9218" stroke-miterlimit="10" cx="11.9"  cy="38.2" r="3.9"/>

	<polygon fill="#727B85" points="111.2,34 109.3,36 107.3,34"/>
	<polygon fill="#727B85" points="52.8,33.6 50.9,35.6 48.9,33.6"/>
	<polygon fill="#CB2026" points="38.9,4.3 38.9,30.4 120,30.4"/>
	<polygon fill="#727B85" points="119.8,1.7 38.8,1.7 119.8,28"/>
</svg>